<svg width="524" height="391" viewBox="0 0 524 391" fill="none" xmlns="http://www.w3.org/2000/svg">
<path d="M0 343.605H524V343.867H0V343.605Z" fill="#E6E6E6"/>
<path d="M128.212 354.719H164.263V354.981H128.212V354.719Z" fill="#E6E6E6"/>
<path d="M407.63 354.845H427.919V355.107H407.63V354.845Z" fill="#E6E6E6"/>
<path d="M260.952 354.236H302.076V354.499H260.952V354.236Z" fill="#E6E6E6"/>
<path d="M303.123 350.5H321.505V350.762H303.123V350.5Z" fill="#E6E6E6"/>
<path d="M79.0611 350.637H134.595V350.899H79.0611V350.637Z" fill="#E6E6E6"/>
<path d="M275.624 296.797H477.982C479.568 296.795 481.087 296.162 482.207 295.038C483.327 293.915 483.956 292.392 483.956 290.805V5.94014C483.942 4.36173 483.307 2.85251 482.188 1.74029C481.07 0.628079 479.558 0.00270391 477.982 0H275.624C274.037 0 272.515 0.631364 271.393 1.7552C270.27 2.87903 269.64 4.40328 269.64 5.99262V290.805C269.64 292.394 270.27 293.918 271.393 295.042C272.515 296.166 274.037 296.797 275.624 296.797V296.797ZM477.982 0.2099C479.498 0.21268 480.951 0.817625 482.022 1.89195C483.092 2.96628 483.694 4.42221 483.694 5.94014V290.805C483.694 292.323 483.092 293.779 482.022 294.853C480.951 295.927 479.498 296.532 477.982 296.535H275.624C274.107 296.532 272.653 295.928 271.581 294.854C270.508 293.78 269.905 292.324 269.902 290.805V5.94014C269.905 4.42124 270.508 2.96534 271.581 1.89131C272.653 0.817284 274.107 0.212674 275.624 0.2099H477.982Z" fill="#E6E6E6"/>
<path d="M48.931 296.797H251.3C252.886 296.795 254.407 296.162 255.528 295.039C256.65 293.916 257.281 292.393 257.284 290.805V5.94014C257.267 4.36077 256.63 2.85156 255.51 1.73964C254.39 0.627712 252.877 0.00267442 251.3 0H48.931C47.3566 0.0054621 45.8478 0.632058 44.7316 1.74398C43.6154 2.85589 42.9817 4.36354 42.9679 5.94014V290.805C42.9679 292.39 43.5955 293.912 44.7132 295.035C45.8309 296.158 47.3476 296.792 48.931 296.797V296.797ZM251.3 0.2099C252.817 0.212674 254.27 0.817284 255.343 1.89131C256.415 2.96534 257.019 4.42124 257.022 5.94014V290.805C257.019 292.324 256.415 293.78 255.343 294.854C254.27 295.928 252.817 296.532 251.3 296.535H48.931C47.4143 296.532 45.9605 295.928 44.888 294.854C43.8155 293.78 43.2117 292.324 43.209 290.805V5.94014C43.2117 4.42124 43.8155 2.96534 44.888 1.89131C45.9605 0.817284 47.4143 0.212674 48.931 0.2099H251.3Z" fill="#E6E6E6"/>
<path d="M80.6645 19.5519H223.486V186.212H80.6645V19.5519Z" fill="#E0E0E0"/>
<path d="M76.7868 19.5519H221.673V186.212H76.7868V19.5519Z" fill="#F5F5F5"/>
<path d="M80.6645 186.212H223.486V195.552H80.6645V186.212Z" fill="#E0E0E0"/>
<path d="M59.0338 186.212H195.431V195.552H59.0338V186.212Z" fill="#F5F5F5"/>
<path d="M82.2156 179.138L82.2156 26.6151L216.234 26.6151V179.138H82.2156Z" fill="#FAFAFA"/>
<path d="M196.961 179.138L165.06 26.6255H123.245L155.146 179.138H196.961Z" fill="white"/>
<path d="M148.376 179.138L116.485 26.6255H97.6002L129.491 179.138H148.376Z" fill="white"/>
<path d="M227.563 19.3106V78.649H211.843C211.843 78.649 183.683 60.2514 177.259 22.3961C177.107 21.4945 177.152 20.5706 177.393 19.6886C177.633 18.8065 178.062 17.9875 178.651 17.2883C179.239 16.5892 179.973 16.0268 180.8 15.6402C181.627 15.2536 182.529 15.0521 183.442 15.0496H223.266C223.828 15.0455 224.385 15.1525 224.905 15.3647C225.426 15.5768 225.899 15.8899 226.299 16.2858C226.698 16.6818 227.015 17.1528 227.232 17.6719C227.449 18.191 227.561 18.7479 227.563 19.3106V19.3106Z" fill="#E0E0E0"/>
<path d="M227.563 173.765V83.4348H211.843C211.843 83.4348 202.83 101.675 193.849 122.644C191.46 128.223 190.491 134.309 191.03 140.355C191.569 146.401 193.598 152.219 196.936 157.286C200.273 162.354 204.815 166.512 210.153 169.388C215.491 172.264 221.459 173.768 227.521 173.765H227.563Z" fill="#E0E0E0"/>
<path d="M212.346 78.6492H226.986C227.854 78.6492 228.558 79.354 228.558 80.2235V81.8607C228.558 82.7301 227.854 83.4349 226.986 83.4349H212.346C211.477 83.4349 210.774 82.7301 210.774 81.8607V80.2235C210.774 79.354 211.477 78.6492 212.346 78.6492Z" fill="#F5F5F5"/>
<path d="M72.312 19.3107V78.6491H88.032C88.032 78.6491 116.202 60.2515 122.616 22.3962C122.768 21.4955 122.723 20.5725 122.483 19.6912C122.243 18.8099 121.815 17.9914 121.227 17.2924C120.64 16.5935 119.908 16.0309 119.082 15.6436C118.256 15.2563 117.355 15.0537 116.443 15.0497H76.6193C76.0565 15.0442 75.4982 15.1502 74.9766 15.3617C74.4549 15.5733 73.9802 15.8861 73.5798 16.2822C73.1794 16.6782 72.8613 17.1497 72.6437 17.6695C72.4261 18.1893 72.3134 18.7471 72.312 19.3107V19.3107Z" fill="#E0E0E0"/>
<path d="M72.2072 173.786V83.4559H87.9272C87.9272 83.4559 96.9399 101.686 105.932 122.665C108.304 128.246 109.26 134.328 108.713 140.369C108.167 146.41 106.135 152.221 102.799 157.284C99.4632 162.346 94.9275 166.503 89.5967 169.383C84.2659 172.262 78.3059 173.775 72.2491 173.786H72.2072Z" fill="#E0E0E0"/>
<path d="M87.5603 83.4348H72.9198C72.0516 83.4348 71.3478 82.73 71.3478 81.8606V80.2234C71.3478 79.3539 72.0516 78.6491 72.9198 78.6491H87.5603C88.4285 78.6491 89.1323 79.3539 89.1323 80.2234V81.8606C89.1323 82.73 88.4285 83.4348 87.5603 83.4348Z" fill="#F5F5F5"/>
<path d="M313.467 92.9747H376.379V161.937H313.467V92.9747Z" fill="#E0E0E0"/>
<path d="M304.622 92.9747H372.973V161.937H304.622V92.9747Z" fill="#FAFAFA"/>
<path d="M311.675 154.895V100.048H365.93V154.895H311.675Z" fill="white"/>
<path d="M353.176 127.461C353.173 124.025 351.808 120.731 349.381 118.303C346.954 115.875 343.664 114.51 340.233 114.51H337.32C333.891 114.513 330.603 115.879 328.178 118.307C325.754 120.735 324.39 124.027 324.387 127.461V127.461C324.387 129.162 324.722 130.846 325.372 132.417C326.022 133.989 326.974 135.416 328.175 136.619C329.376 137.821 330.802 138.775 332.371 139.426C333.94 140.077 335.621 140.412 337.32 140.412H340.233C341.932 140.413 343.615 140.079 345.185 139.429C346.756 138.779 348.182 137.825 349.384 136.623C350.586 135.42 351.54 133.992 352.19 132.42C352.841 130.848 353.176 129.163 353.176 127.461Z" fill="#F5F5F5"/>
<path d="M427.332 109.431C436.088 109.431 444.484 105.948 450.675 99.7481C456.866 93.5483 460.344 85.1396 460.344 76.3718C460.344 67.604 456.866 59.1953 450.675 52.9955C444.484 46.7957 436.088 43.3127 427.332 43.3127H421.369V109.431H427.332Z" fill="#E0E0E0"/>
<path d="M421.369 109.431C403.149 109.431 388.378 94.6392 388.378 76.3927C388.378 58.1463 403.149 43.3546 421.369 43.3546C439.59 43.3546 454.36 58.1463 454.36 76.3927C454.36 94.6392 439.59 109.431 421.369 109.431Z" fill="#FAFAFA"/>
<path d="M421.369 101.308C407.629 101.308 396.49 90.1529 396.49 76.3927C396.49 62.6326 407.629 51.4777 421.369 51.4777C435.11 51.4777 446.249 62.6326 446.249 76.3927C446.249 90.1529 435.11 101.308 421.369 101.308Z" fill="white"/>
<path d="M411.12 85.7123L423.34 77.1799L419.462 58.2994L416.004 59.0131L419.41 75.6056L409.097 82.8052L411.12 85.7123Z" fill="#E0E0E0"/>
<path d="M154.748 225.641H199.717V347.32H154.748V225.641Z" fill="#E0E0E0"/>
<path d="M166.758 347.32H154.748V327.17H179.344L166.758 347.32Z" fill="#FAFAFA"/>
<path d="M424.346 225.641H469.315V347.32H424.346V225.641Z" fill="#E0E0E0"/>
<path d="M154.737 225.641H434.826V340.383H154.737V225.641Z" fill="#FAFAFA"/>
<path d="M422.816 347.32H434.826V327.17H410.229L422.816 347.32Z" fill="#FAFAFA"/>
<path d="M164.054 235.507H425.509V277.738H164.054V235.507Z" fill="#F0F0F0"/>
<path d="M164.054 287.95H425.509V330.182H164.054V287.95Z" fill="#F0F0F0"/>
<path d="M202.39 235.507H425.509V277.738H202.39V235.507Z" fill="#E0E0E0"/>
<path d="M356.802 241.206H370.374C370.374 241.206 368.016 249.36 368.016 254.156C368.016 258.953 378.338 277.749 363.583 277.749C348.827 277.749 359.16 258.953 359.16 254.156C359.16 249.36 356.802 241.206 356.802 241.206Z" fill="#FAFAFA"/>
<path d="M410.229 255.374V262.794C410.229 271.022 402.285 277.749 392.581 277.749H383.83C374.126 277.749 366.182 271.022 366.182 262.794V255.374H410.229Z" fill="#F0F0F0"/>
<path d="M202.39 287.95H425.509V330.182H202.39V287.95Z" fill="#E0E0E0"/>
<path d="M300.2 329.426H279.302V294.572H300.2V329.426Z" fill="white"/>
<path d="M282.562 329.961H281.136V295.107H282.562V329.961Z" fill="#E6E6E6"/>
<path d="M281.032 330.224H277.385C277.107 330.224 276.882 329.998 276.882 329.72V295.339C276.882 295.06 277.107 294.835 277.385 294.835H281.032C281.309 294.835 281.535 295.06 281.535 295.339V329.72C281.535 329.998 281.309 330.224 281.032 330.224Z" fill="#EBEBEB"/>
<path d="M281.535 311.186H276.882V302.916H281.535V311.186Z" fill="white"/>
<path d="M281.535 318.847H276.882V313.747H281.535V318.847Z" fill="white"/>
<path d="M301.268 330.224H282.436C282.158 330.224 281.933 329.998 281.933 329.72V295.339C281.933 295.06 282.158 294.835 282.436 294.835H301.268C301.546 294.835 301.772 295.06 301.772 295.339V329.72C301.772 329.998 301.546 330.224 301.268 330.224Z" fill="#EBEBEB"/>
<path d="M310.397 329.332H287.341V290.878H310.397V329.332Z" fill="white"/>
<path d="M290.914 329.94H289.353V291.487H290.914V329.94Z" fill="#E6E6E6"/>
<path d="M289.237 330.234H285.213C284.906 330.234 284.658 329.985 284.658 329.678V291.749C284.658 291.442 284.906 291.193 285.213 291.193H289.237C289.544 291.193 289.793 291.442 289.793 291.749V329.678C289.793 329.985 289.544 330.234 289.237 330.234Z" fill="#F0F0F0"/>
<path d="M289.793 304.962H284.658V303.63H289.793V304.962Z" fill="white"/>
<path d="M289.793 308.814H284.658V307.481H289.793V308.814Z" fill="white"/>
<path d="M289.793 312.666H284.658V311.333H289.793V312.666Z" fill="white"/>
<path d="M311.56 330.234H290.789C290.482 330.234 290.233 329.985 290.233 329.678V291.749C290.233 291.442 290.482 291.193 290.789 291.193H311.56C311.867 291.193 312.115 291.442 312.115 291.749V329.678C312.115 329.985 311.867 330.234 311.56 330.234Z" fill="#F0F0F0"/>
<path d="M338.797 316.832C338.795 318.003 339.14 319.149 339.789 320.124C340.437 321.098 341.359 321.859 342.439 322.308C343.519 322.758 344.708 322.877 345.855 322.649C347.002 322.422 348.056 321.859 348.884 321.032C349.712 320.205 350.276 319.15 350.505 318.001C350.733 316.853 350.617 315.662 350.17 314.58C349.723 313.498 348.965 312.573 347.993 311.922C347.021 311.271 345.878 310.924 344.708 310.924C343.142 310.924 341.641 311.546 340.532 312.654C339.424 313.761 338.8 315.264 338.797 316.832V316.832Z" fill="#FAFAFA"/>
<path d="M348.869 319.655C348.869 320.571 349.14 321.466 349.648 322.227C350.155 322.988 350.877 323.581 351.722 323.931C352.566 324.282 353.496 324.373 354.392 324.195C355.289 324.016 356.112 323.575 356.758 322.928C357.405 322.281 357.845 321.456 358.023 320.558C358.202 319.66 358.11 318.73 357.76 317.884C357.41 317.038 356.818 316.316 356.058 315.807C355.298 315.299 354.404 315.027 353.49 315.027C352.265 315.03 351.092 315.518 350.225 316.386C349.359 317.253 348.871 318.429 348.869 319.655V319.655Z" fill="#FAFAFA"/>
<path d="M328.684 319.655C328.684 320.826 329.031 321.97 329.68 322.944C330.33 323.917 331.253 324.676 332.333 325.124C333.413 325.572 334.601 325.689 335.748 325.461C336.895 325.232 337.948 324.669 338.774 323.841C339.601 323.013 340.164 321.958 340.392 320.81C340.62 319.662 340.503 318.472 340.056 317.39C339.608 316.308 338.851 315.384 337.879 314.734C336.907 314.083 335.764 313.736 334.595 313.736C333.028 313.739 331.526 314.363 330.418 315.473C329.311 316.582 328.687 318.086 328.684 319.655V319.655Z" fill="#FAFAFA"/>
<path d="M319.001 317.924C319.001 319.094 319.347 320.239 319.997 321.212C320.646 322.186 321.569 322.944 322.649 323.392C323.729 323.84 324.918 323.957 326.064 323.729C327.211 323.501 328.264 322.937 329.091 322.109C329.917 321.281 330.48 320.227 330.708 319.078C330.937 317.93 330.819 316.74 330.372 315.658C329.925 314.577 329.167 313.652 328.195 313.002C327.223 312.352 326.08 312.004 324.911 312.004C323.344 312.004 321.84 312.628 320.732 313.738C319.623 314.848 319.001 316.354 319.001 317.924V317.924Z" fill="#FAFAFA"/>
<path d="M369.755 318.69C369.755 318.69 368.948 330.234 337.854 330.234C306.76 330.234 305.953 318.69 305.953 318.69H369.755Z" fill="#F5F5F5"/>
<path d="M282.562 266.204C282.562 266.204 281.273 277.749 231.996 277.749C182.719 277.749 181.44 266.204 181.44 266.204H282.562Z" fill="white"/>
<path d="M262 391C149.777 391 58.8032 385.681 58.8032 379.12C58.8032 372.558 149.777 367.24 262 367.24C374.222 367.24 465.197 372.558 465.197 379.12C465.197 385.681 374.222 391 262 391Z" fill="#F5F5F5"/>
<path d="M370.026 221.785C347.86 199.587 347.86 163.598 370.026 141.4C392.192 119.202 428.131 119.202 450.297 141.4C472.463 163.598 472.463 199.587 450.297 221.785C428.131 243.983 392.192 243.983 370.026 221.785Z" fill="#407BFF"/>
<path opacity="0.4" d="M370.026 221.785C347.86 199.587 347.86 163.598 370.026 141.4C392.192 119.202 428.131 119.202 450.297 141.4C472.463 163.598 472.463 199.587 450.297 221.785C428.131 243.983 392.192 243.983 370.026 221.785Z" fill="black"/>
<path opacity="0.2" d="M363.172 189.619C358.746 163.633 376.194 138.974 402.142 134.541C428.091 130.109 452.715 147.581 457.141 173.567C461.567 199.553 444.12 224.212 418.171 228.644C392.222 233.077 367.598 215.604 363.172 189.619Z" fill="black"/>
<path d="M360.894 186.164C359.126 160.858 378.177 138.907 403.447 137.135C428.717 135.364 450.637 154.443 452.406 179.749C454.175 205.055 435.123 227.006 409.853 228.777C384.583 230.549 362.663 211.47 360.894 186.164Z" fill="#407BFF"/>
<path opacity="0.4" d="M360.894 186.164C359.126 160.858 378.177 138.907 403.447 137.135C428.717 135.364 450.637 154.443 452.406 179.749C454.175 205.055 435.123 227.006 409.853 228.777C384.583 230.549 362.663 211.47 360.894 186.164Z" fill="black"/>
<path d="M391.313 177.218L388.326 190.179C388.199 190.674 388.176 191.19 388.259 191.694C388.342 192.198 388.529 192.679 388.808 193.107C389.079 193.544 389.434 193.923 389.854 194.22C390.273 194.518 390.748 194.728 391.25 194.839L402.631 197.473L400.535 206.593C400.412 207.086 400.393 207.599 400.479 208.1C400.566 208.601 400.756 209.077 401.038 209.5C401.309 209.93 401.666 210.3 402.086 210.585C402.506 210.87 402.981 211.066 403.48 211.158C403.98 211.284 404.5 211.308 405.01 211.228C405.519 211.149 406.007 210.968 406.446 210.697C406.883 210.439 407.261 210.093 407.557 209.681C407.853 209.269 408.06 208.8 408.165 208.304L410.261 199.079L421.547 201.692C422.034 201.809 422.539 201.827 423.033 201.744C423.526 201.661 423.998 201.479 424.419 201.209C424.857 200.952 425.237 200.606 425.534 200.194C425.832 199.782 426.041 199.313 426.148 198.816C426.267 198.326 426.286 197.816 426.203 197.318C426.12 196.821 425.938 196.345 425.666 195.92C425.407 195.485 425.061 195.109 424.65 194.814C424.239 194.52 423.771 194.314 423.277 194.209L396.867 188.111L398.104 182.727L424.44 188.804C424.928 188.929 425.435 188.953 425.932 188.875C426.43 188.798 426.906 188.62 427.332 188.353C427.77 188.09 428.148 187.738 428.442 187.321C428.736 186.904 428.94 186.429 429.041 185.928L432.017 173.02C432.246 172.027 432.072 170.985 431.534 170.121C430.995 169.257 430.136 168.642 429.145 168.412L417.911 165.82L420.007 156.689C420.128 156.207 420.152 155.704 420.077 155.212C420.001 154.72 419.828 154.248 419.567 153.824C419.29 153.365 418.919 152.97 418.478 152.666C418.037 152.362 417.537 152.156 417.01 152.061C416.525 151.943 416.021 151.925 415.53 152.008C415.038 152.091 414.568 152.273 414.149 152.544C413.718 152.809 413.346 153.159 413.054 153.572C412.762 153.985 412.557 154.453 412.451 154.947L410.355 164.067L398.827 161.423C398.328 161.302 397.81 161.283 397.304 161.368C396.798 161.453 396.314 161.639 395.882 161.916C395.445 162.168 395.064 162.508 394.765 162.914C394.465 163.32 394.253 163.785 394.142 164.277C393.921 165.292 394.106 166.354 394.656 167.234C395.207 168.115 396.079 168.745 397.087 168.99L423.497 175.087L422.344 180.44L396.029 174.363C395.53 174.242 395.012 174.223 394.506 174.308C394 174.393 393.516 174.579 393.084 174.856C392.639 175.103 392.252 175.441 391.947 175.848C391.642 176.255 391.426 176.721 391.313 177.218V177.218Z" fill="#407BFF"/>
<g opacity="0.7">
<path opacity="0.7" d="M391.313 177.218L388.326 190.179C388.199 190.674 388.176 191.19 388.259 191.694C388.342 192.198 388.529 192.679 388.808 193.107C389.079 193.544 389.434 193.923 389.854 194.22C390.273 194.518 390.748 194.728 391.25 194.839L402.631 197.473L400.535 206.593C400.412 207.086 400.393 207.599 400.479 208.1C400.566 208.601 400.756 209.077 401.038 209.5C401.309 209.93 401.666 210.3 402.086 210.585C402.506 210.87 402.981 211.066 403.48 211.158C403.98 211.284 404.5 211.308 405.01 211.228C405.519 211.149 406.007 210.968 406.446 210.697C406.883 210.439 407.261 210.093 407.557 209.681C407.853 209.269 408.06 208.8 408.165 208.304L410.261 199.079L421.547 201.692C422.034 201.809 422.539 201.827 423.033 201.744C423.526 201.661 423.998 201.479 424.419 201.209C424.857 200.952 425.237 200.606 425.534 200.194C425.832 199.782 426.041 199.313 426.148 198.816C426.267 198.326 426.286 197.816 426.203 197.318C426.12 196.821 425.938 196.345 425.666 195.92C425.407 195.485 425.061 195.109 424.65 194.814C424.239 194.52 423.771 194.314 423.277 194.209L396.867 188.111L398.104 182.727L424.44 188.804C424.928 188.929 425.435 188.953 425.932 188.875C426.43 188.798 426.906 188.62 427.332 188.353C427.77 188.09 428.148 187.738 428.442 187.321C428.736 186.904 428.94 186.429 429.041 185.928L432.017 173.02C432.246 172.027 432.072 170.985 431.534 170.121C430.995 169.257 430.136 168.642 429.145 168.412L417.911 165.82L420.007 156.689C420.128 156.207 420.152 155.704 420.077 155.212C420.001 154.72 419.828 154.248 419.567 153.824C419.29 153.365 418.919 152.97 418.478 152.666C418.037 152.362 417.537 152.156 417.01 152.061C416.525 151.943 416.021 151.925 415.53 152.008C415.038 152.091 414.568 152.273 414.149 152.544C413.718 152.809 413.346 153.159 413.054 153.572C412.762 153.985 412.557 154.453 412.451 154.947L410.355 164.067L398.827 161.423C398.328 161.302 397.81 161.283 397.304 161.368C396.798 161.453 396.314 161.639 395.882 161.916C395.445 162.168 395.064 162.508 394.765 162.914C394.465 163.32 394.253 163.785 394.142 164.277C393.921 165.292 394.106 166.354 394.656 167.234C395.207 168.115 396.079 168.745 397.087 168.99L423.497 175.087L422.344 180.44L396.029 174.363C395.53 174.242 395.012 174.223 394.506 174.308C394 174.393 393.516 174.579 393.084 174.856C392.639 175.103 392.252 175.441 391.947 175.848C391.642 176.255 391.426 176.721 391.313 177.218V177.218Z" fill="white"/>
</g>
<path d="M289.04 136.39C274.918 119.655 277.017 94.6253 293.728 80.4836C310.438 66.3418 335.433 68.4436 349.554 85.1781C363.676 101.913 361.577 126.943 344.867 141.085C328.156 155.226 303.161 153.124 289.04 136.39Z" fill="#407BFF"/>
<path opacity="0.4" d="M289.04 136.39C274.918 119.655 277.017 94.6253 293.728 80.4836C310.438 66.3418 335.433 68.4436 349.554 85.1781C363.676 101.913 361.577 126.943 344.867 141.085C328.156 155.226 303.161 153.124 289.04 136.39Z" fill="black"/>
<path opacity="0.2" d="M293.657 131.978C281.952 117.799 283.942 96.802 298.101 85.0802C312.26 73.3583 333.227 75.3505 344.932 89.5299C356.637 103.709 354.648 124.706 340.489 136.428C326.33 148.15 305.362 146.158 293.657 131.978Z" fill="black"/>
<path d="M292.653 132.327C281.944 118.294 284.622 98.2254 298.634 87.501C312.646 76.7765 332.686 79.4579 343.395 93.4899C354.105 107.522 351.427 127.591 337.415 138.316C323.403 149.04 303.362 146.359 292.653 132.327Z" fill="#407BFF"/>
<path opacity="0.4" d="M292.653 132.327C281.944 118.294 284.622 98.2254 298.634 87.501C312.646 76.7765 332.686 79.4579 343.395 93.4899C354.105 107.522 351.427 127.591 337.415 138.316C323.403 149.04 303.362 146.359 292.653 132.327Z" fill="black"/>
<path d="M306.205 114.038L308.458 123.043C308.54 123.385 308.692 123.707 308.905 123.987C309.118 124.267 309.387 124.499 309.694 124.669C310.005 124.859 310.351 124.983 310.711 125.036C311.072 125.088 311.439 125.067 311.79 124.974L319.64 122.99L321.233 129.287C321.314 129.631 321.466 129.955 321.679 130.236C321.892 130.518 322.161 130.753 322.47 130.924C322.767 131.109 323.098 131.231 323.444 131.284C323.79 131.336 324.143 131.317 324.482 131.229C324.83 131.147 325.159 130.996 325.449 130.785C325.739 130.574 325.983 130.308 326.169 130.001C326.358 129.701 326.484 129.366 326.538 129.016C326.592 128.665 326.573 128.308 326.483 127.965L324.88 121.563L332.74 119.642C333.081 119.561 333.401 119.411 333.682 119.201C333.963 118.992 334.199 118.728 334.375 118.425C334.564 118.127 334.69 117.794 334.744 117.445C334.798 117.096 334.78 116.74 334.689 116.399C334.611 116.054 334.463 115.729 334.253 115.444C334.044 115.158 333.779 114.919 333.474 114.741C333.172 114.557 332.837 114.436 332.487 114.385C332.138 114.335 331.782 114.356 331.44 114.447L313.1 119.055L312.157 115.318L330.445 110.722C330.787 110.645 331.11 110.498 331.393 110.29C331.677 110.083 331.914 109.818 332.09 109.515C332.28 109.215 332.404 108.879 332.455 108.528C332.506 108.177 332.481 107.819 332.384 107.479L330.141 98.5054C330.056 98.1634 329.905 97.8415 329.696 97.5584C329.486 97.2753 329.223 97.0366 328.921 96.8561C328.619 96.6755 328.284 96.5567 327.936 96.5066C327.587 96.4564 327.233 96.4759 326.892 96.5638L319.116 98.5159L317.523 92.2189C317.446 91.8635 317.296 91.5279 317.083 91.2333C316.87 90.9386 316.599 90.6913 316.286 90.507C315.973 90.3226 315.625 90.2051 315.264 90.162C314.904 90.1189 314.538 90.151 314.19 90.2564C313.853 90.3347 313.535 90.4825 313.257 90.6902C312.979 90.898 312.747 91.1612 312.576 91.4633C312.391 91.7625 312.268 92.0965 312.216 92.4447C312.164 92.793 312.183 93.1482 312.273 93.4888L313.865 99.7858L305.901 101.79C305.551 101.874 305.222 102.028 304.934 102.242C304.646 102.457 304.404 102.728 304.224 103.039C304.033 103.334 303.905 103.665 303.847 104.012C303.789 104.358 303.803 104.713 303.889 105.054C303.976 105.404 304.132 105.733 304.348 106.021C304.564 106.309 304.835 106.551 305.146 106.733C305.456 106.926 305.801 107.054 306.162 107.108C306.522 107.162 306.89 107.142 307.242 107.048L325.593 102.441L326.515 106.156L308.238 110.743C307.888 110.826 307.56 110.98 307.271 111.195C306.983 111.409 306.741 111.68 306.561 111.991C306.359 112.287 306.223 112.623 306.161 112.976C306.1 113.329 306.115 113.691 306.205 114.038V114.038Z" fill="#407BFF"/>
<g opacity="0.7">
<path opacity="0.7" d="M306.205 114.038L308.458 123.043C308.54 123.385 308.692 123.707 308.905 123.987C309.118 124.267 309.387 124.499 309.694 124.669C310.005 124.859 310.351 124.983 310.711 125.036C311.072 125.088 311.439 125.067 311.79 124.974L319.64 122.99L321.233 129.287C321.314 129.631 321.466 129.955 321.679 130.236C321.892 130.518 322.161 130.753 322.47 130.924C322.767 131.109 323.098 131.231 323.444 131.284C323.79 131.336 324.143 131.317 324.482 131.229C324.83 131.147 325.159 130.996 325.449 130.785C325.739 130.574 325.983 130.308 326.169 130.001C326.358 129.701 326.484 129.366 326.538 129.016C326.592 128.665 326.573 128.308 326.483 127.965L324.88 121.563L332.74 119.642C333.081 119.561 333.401 119.411 333.682 119.201C333.963 118.992 334.199 118.728 334.375 118.425C334.564 118.127 334.69 117.794 334.744 117.445C334.798 117.096 334.78 116.74 334.689 116.399C334.611 116.054 334.463 115.729 334.253 115.444C334.044 115.158 333.779 114.919 333.474 114.741C333.172 114.557 332.837 114.436 332.487 114.385C332.138 114.335 331.782 114.356 331.44 114.447L313.1 119.055L312.157 115.318L330.445 110.722C330.787 110.645 331.11 110.498 331.393 110.29C331.677 110.083 331.914 109.818 332.09 109.515C332.28 109.215 332.404 108.879 332.455 108.528C332.506 108.177 332.481 107.819 332.384 107.479L330.141 98.5054C330.056 98.1634 329.905 97.8415 329.696 97.5584C329.486 97.2753 329.223 97.0366 328.921 96.8561C328.619 96.6755 328.284 96.5567 327.936 96.5066C327.587 96.4564 327.233 96.4759 326.892 96.5638L319.116 98.5159L317.523 92.2189C317.446 91.8635 317.296 91.5279 317.083 91.2333C316.87 90.9386 316.599 90.6913 316.286 90.507C315.973 90.3226 315.625 90.2051 315.264 90.162C314.904 90.1189 314.538 90.151 314.19 90.2564C313.853 90.3347 313.535 90.4825 313.257 90.6902C312.979 90.898 312.747 91.1612 312.576 91.4633C312.391 91.7625 312.268 92.0965 312.216 92.4447C312.164 92.793 312.183 93.1482 312.273 93.4888L313.865 99.7858L305.901 101.79C305.551 101.874 305.222 102.028 304.934 102.242C304.646 102.457 304.404 102.728 304.224 103.039C304.033 103.334 303.905 103.665 303.847 104.012C303.789 104.358 303.803 104.713 303.889 105.054C303.976 105.404 304.132 105.733 304.348 106.021C304.564 106.309 304.835 106.551 305.146 106.733C305.456 106.926 305.801 107.054 306.162 107.108C306.522 107.162 306.89 107.142 307.242 107.048L325.593 102.441L326.515 106.156L308.238 110.743C307.888 110.826 307.56 110.98 307.271 111.195C306.983 111.409 306.741 111.68 306.561 111.991C306.359 112.287 306.223 112.623 306.161 112.976C306.1 113.329 306.115 113.691 306.205 114.038V114.038Z" fill="white"/>
</g>
<path d="M415.783 350.5H416.831V362.349H415.783V350.5Z" fill="#407BFF"/>
<path opacity="0.1" d="M415.783 350.5H416.831V362.349H415.783V350.5Z" fill="black"/>
<path d="M126.598 186.223H397.391C406.102 186.223 413.163 193.294 413.163 202.017V360.754C413.163 369.477 406.102 376.549 397.391 376.549H126.598C117.887 376.549 110.826 369.477 110.826 360.754V202.017C110.826 193.294 117.887 186.223 126.598 186.223Z" fill="#5181EF"/>
<path opacity="0.2" d="M159.767 252.498C148.961 252.498 140.201 243.726 140.201 232.904C140.201 222.083 148.961 213.31 159.767 213.31C170.574 213.31 179.334 222.083 179.334 232.904C179.334 243.726 170.574 252.498 159.767 252.498Z" fill="black"/>
<path d="M185.024 252.498C174.218 252.498 165.458 243.726 165.458 232.904C165.458 222.083 174.218 213.31 185.024 213.31C195.83 213.31 204.59 222.083 204.59 232.904C204.59 243.726 195.83 252.498 185.024 252.498Z" fill="#407BFF"/>
<path d="M330.392 252.498H376.997C380.748 252.498 383.788 255.543 383.788 259.299V289.808C383.788 293.564 380.748 296.609 376.997 296.609H330.392C326.642 296.609 323.601 293.564 323.601 289.808V259.299C323.601 255.543 326.642 252.498 330.392 252.498Z" fill="#407BFF"/>
<path opacity="0.3" d="M330.392 252.498H376.997C380.748 252.498 383.788 255.543 383.788 259.299V289.808C383.788 293.564 380.748 296.609 376.997 296.609H330.392C326.642 296.609 323.601 293.564 323.601 289.808V259.299C323.601 255.543 326.642 252.498 330.392 252.498Z" fill="white"/>
<path d="M298.146 208.503H378.978C381.634 208.503 383.788 210.658 383.788 213.315C383.788 215.973 381.634 218.127 378.978 218.127H298.146C295.489 218.127 293.335 215.973 293.335 213.315C293.335 210.658 295.489 208.503 298.146 208.503Z" fill="#407BFF"/>
<path opacity="0.3" d="M298.146 208.503H378.978C381.634 208.503 383.788 210.658 383.788 213.315C383.788 215.973 381.634 218.127 378.978 218.127H298.146C295.489 218.127 293.335 215.973 293.335 213.315C293.335 210.658 295.489 208.503 298.146 208.503Z" fill="white"/>
<path d="M340.38 318.501H376.735C380.63 318.501 383.788 321.663 383.788 325.564V332.165C383.788 336.066 380.63 339.228 376.735 339.228H340.38C336.485 339.228 333.327 336.066 333.327 332.165V325.564C333.327 321.663 336.485 318.501 340.38 318.501Z" fill="#407BFF"/>
<path opacity="0.3" d="M340.38 318.501H376.735C380.63 318.501 383.788 321.663 383.788 325.564V332.165C383.788 336.066 380.63 339.228 376.735 339.228H340.38C336.485 339.228 333.327 336.066 333.327 332.165V325.564C333.327 321.663 336.485 318.501 340.38 318.501Z" fill="white"/>
<path d="M276.012 318.501H312.367C316.262 318.501 319.42 321.663 319.42 325.564V332.165C319.42 336.066 316.262 339.228 312.367 339.228H276.012C272.116 339.228 268.959 336.066 268.959 332.165V325.564C268.959 321.663 272.116 318.501 276.012 318.501Z" fill="#407BFF"/>
<path opacity="0.3" d="M276.012 318.501H312.367C316.262 318.501 319.42 321.663 319.42 325.564V332.165C319.42 336.066 316.262 339.228 312.367 339.228H276.012C272.116 339.228 268.959 336.066 268.959 332.165V325.564C268.959 321.663 272.116 318.501 276.012 318.501Z" fill="white"/>
<path d="M211.633 318.501H247.988C251.883 318.501 255.041 321.663 255.041 325.564V332.165C255.041 336.066 251.883 339.228 247.988 339.228H211.633C207.738 339.228 204.58 336.066 204.58 332.165V325.564C204.58 321.663 207.738 318.501 211.633 318.501Z" fill="#407BFF"/>
<path opacity="0.3" d="M211.633 318.501H247.988C251.883 318.501 255.041 321.663 255.041 325.564V332.165C255.041 336.066 251.883 339.228 247.988 339.228H211.633C207.738 339.228 204.58 336.066 204.58 332.165V325.564C204.58 321.663 207.738 318.501 211.633 318.501Z" fill="white"/>
<path d="M147.265 318.501H183.62C187.515 318.501 190.673 321.663 190.673 325.564V332.165C190.673 336.066 187.515 339.228 183.62 339.228H147.265C143.369 339.228 140.212 336.066 140.212 332.165V325.564C140.212 321.663 143.369 318.501 147.265 318.501Z" fill="#407BFF"/>
<path opacity="0.3" d="M147.265 318.501H183.62C187.515 318.501 190.673 321.663 190.673 325.564V332.165C190.673 336.066 187.515 339.228 183.62 339.228H147.265C143.369 339.228 140.212 336.066 140.212 332.165V325.564C140.212 321.663 143.369 318.501 147.265 318.501Z" fill="white"/>
<path d="M216.936 117.354C219.42 124.376 222.176 131.166 225.1 137.956C228.059 144.861 231.455 151.57 235.266 158.043C235.779 158.873 236.314 159.702 236.869 160.531L237.278 161.15L237.833 161.916C238.21 162.399 238.567 162.819 238.881 163.228C240.202 164.702 241.601 166.103 243.073 167.426C245.871 170.018 248.722 172.369 251.604 174.688C257.389 179.285 263.3 183.588 269.42 187.671L273.077 183.126L257.672 167.919C255.125 165.39 252.599 162.84 250.241 160.289C249.078 159.019 247.946 157.718 247.014 156.522C246.783 156.228 246.584 155.934 246.406 155.682L246.186 155.325L245.882 154.779C245.473 154.055 245.043 153.352 244.645 152.607C241.438 146.572 238.609 140.013 235.884 133.359C233.159 126.705 230.539 119.999 228.024 113.345L216.936 117.354Z" fill="#E4897B"/>
<path d="M213.991 112.296C211.612 119.265 225.593 139.761 225.593 139.761L238.944 132.32C236.669 125.925 233.98 119.685 230.895 113.639C226.221 104.782 216.601 104.645 213.991 112.296Z" fill="#407BFF"/>
<path opacity="0.7" d="M213.991 112.296C211.612 119.265 225.593 139.761 225.593 139.761L238.944 132.32C236.669 125.925 233.98 119.685 230.895 113.639C226.221 104.782 216.601 104.645 213.991 112.296Z" fill="white"/>
<path opacity="0.31" d="M213.792 113.167C216.789 111.729 220.237 112.936 223.874 118.687C227.51 124.439 230.602 134.041 230.937 136.781L225.582 139.751C225.582 139.751 212.681 120.818 213.792 113.167Z" fill="#407BFF"/>
<path d="M223.035 106.964C223.035 106.964 233.012 130.463 225.823 174.216H184.27C183.756 167.825 186.691 136.665 179.491 106.566C184.065 105.674 188.694 105.085 193.345 104.803C199.227 104.466 205.123 104.466 211.004 104.803C215.064 105.215 219.086 105.938 223.035 106.964V106.964Z" fill="#407BFF"/>
<path opacity="0.7" d="M223.035 106.964C223.035 106.964 233.012 130.463 225.823 174.216H184.27C183.756 167.825 186.691 136.665 179.491 106.566C184.065 105.674 188.694 105.085 193.345 104.803C199.227 104.466 205.123 104.466 211.004 104.803C215.064 105.215 219.086 105.938 223.035 106.964V106.964Z" fill="white"/>
<path d="M169.556 360.638L175.708 366.158L187.435 353.932L181.273 348.411L169.556 360.638Z" fill="#E4897B"/>
<path d="M190.652 372.12H198.418L199.424 354.11H191.658L190.652 372.12Z" fill="#E4897B"/>
<path d="M187.424 353.932L181.388 360.239L175.226 354.708L181.262 348.411L187.424 353.932Z" fill="#CE6F64"/>
<path d="M191.658 354.11H199.424L198.9 363.398H191.134L191.658 354.11Z" fill="#CE6F64"/>
<path d="M225.823 174.216C225.823 174.216 234.008 230.952 236.796 261.828C239.038 286.607 185.538 360.481 185.538 360.481L175.194 350.731C175.194 350.731 214.264 284.497 211.256 256.916C208.342 230.207 198.47 174.185 198.47 174.185L225.823 174.216Z" fill="#305CBF"/>
<path opacity="0.2" d="M211.256 256.948C209.757 243.189 206.404 221.632 203.522 203.98C205.031 201.02 209.265 195.028 209.265 195.028C213.058 208.157 221.306 257.651 209.537 324.493C197.276 344.287 185.538 360.512 185.538 360.512L183.934 334.988C195.263 313.642 213.341 276.017 211.256 256.948Z" fill="black"/>
<path d="M211.046 174.216C211.046 174.216 211.78 233.67 210.522 255.951C209.149 280.341 202.233 361.163 202.233 361.163H188.001C188.001 361.163 188.43 282.314 187.592 258.176C186.659 231.938 184.249 174.216 184.249 174.216H211.046Z" fill="#305CBF"/>
<path d="M198.827 371.228H190.097C189.951 371.222 189.809 371.274 189.701 371.372C189.593 371.47 189.528 371.607 189.52 371.752L189.091 378.669C189.089 378.849 189.123 379.028 189.191 379.195C189.259 379.363 189.359 379.515 189.485 379.644C189.612 379.772 189.762 379.875 189.928 379.945C190.094 380.016 190.273 380.053 190.453 380.054C193.492 380.001 194.949 379.823 198.785 379.823C201.143 379.823 211.182 380.075 214.442 380.075C217.701 380.075 217.586 376.842 216.234 376.549C210.04 375.237 202.358 373.4 200.157 371.7C199.778 371.4 199.31 371.234 198.827 371.228V371.228Z" fill="#263238"/>
<path d="M177.405 363.944L169.923 358.896C169.801 358.799 169.649 358.746 169.493 358.746C169.337 358.746 169.186 358.799 169.063 358.896L163.341 364.679C163.23 364.806 163.147 364.956 163.1 365.118C163.053 365.281 163.042 365.452 163.068 365.619C163.094 365.786 163.156 365.946 163.25 366.086C163.345 366.226 163.469 366.344 163.614 366.431C168.393 370.115 171.841 372.896 174.565 375.961C177.709 379.54 179.407 380.054 186.743 380.054C190.139 380.054 192.057 377.189 190.673 376.748C178.453 372.875 181.723 371.186 178.747 365.508C178.436 364.883 177.975 364.346 177.405 363.944Z" fill="#263238"/>
<path d="M271.317 182.15L279.418 182.434L277.72 188.794C277.72 188.794 269.252 189.549 268.498 186.988L271.317 182.15Z" fill="#E4897B"/>
<path d="M288.158 186.222L282.478 189.539L277.72 188.794L279.418 182.434L288.158 186.222Z" fill="#E4897B"/>
<path opacity="0.31" d="M188.776 113.996C189.636 118.95 188.493 130.788 184.249 144.494C183.917 132.751 182.553 121.06 180.172 109.557V109.494C182.897 109.221 187.948 109.347 188.776 113.996Z" fill="#407BFF"/>
<path d="M194.404 84.8832C195.714 90.5715 197.192 101.003 193.356 104.824C193.356 104.824 195.012 109.536 205.576 109.536C217.188 109.536 211.015 104.824 211.015 104.824C204.622 103.312 204.622 98.6001 205.576 94.1818L194.404 84.8832Z" fill="#E4897B"/>
<path d="M205.869 109.515L209.013 112.863L207.473 116.095L204.968 116.211L202.83 113.125L205.869 109.515Z" fill="#407BFF"/>
<path d="M198.952 88.6717L205.565 94.1501C205.327 95.1847 205.18 96.2382 205.125 97.2985C202.694 96.9522 199.277 94.2865 198.931 91.7467C198.746 90.7294 198.753 89.6864 198.952 88.6717V88.6717Z" fill="#CE6F64"/>
<path d="M208.185 65.5934C212.157 66.9473 215.333 77.4947 210.7 80.2863C206.068 83.078 200.64 63.0221 208.185 65.5934Z" fill="#263238"/>
<path d="M191.92 78.9219C194.289 86.2683 195.295 90.7077 200.074 93.7198C201.615 94.712 203.399 95.2633 205.23 95.3139C207.062 95.3645 208.873 94.9126 210.467 94.0069C212.061 93.1013 213.377 91.7764 214.274 90.1757C215.17 88.575 215.612 86.7593 215.553 84.925C215.458 77.8619 211.602 66.9891 203.48 65.6248C201.729 65.2864 199.921 65.4145 198.235 65.9962C196.55 66.5779 195.046 67.5929 193.876 68.9395C192.705 70.286 191.908 71.9169 191.565 73.6688C191.222 75.4208 191.344 77.2322 191.92 78.9219V78.9219Z" fill="#E4897B"/>
<path d="M186.052 66.6429C188.42 72.3731 182.908 67.5874 184.333 74.3882C185.255 78.817 193.241 89.4274 196.322 88.4619C199.403 87.4963 199.372 79.9715 195.442 74.6505C193.178 71.5965 198.072 68.1332 209.066 68.5005C220.059 68.8678 226.703 62.6758 212.094 58.1315C212.094 58.1315 217.481 61.28 214.285 62.3295C209.757 64.0191 181.304 55.1614 186.052 66.6429Z" fill="#263238"/>
<path d="M188.148 69.2665C188.263 69.2665 185.685 68.6263 184.312 64.019C184.312 64.0925 184.762 70.8827 188.148 69.2665Z" fill="#263238"/>
<path d="M208.72 59.1496C215.479 61.2486 212.681 63.61 209.883 64.1977L203.469 61.6789C213.215 62.9698 208.72 59.1496 208.72 59.1496Z" fill="#263238"/>
<path d="M190.621 87.8952C192.026 89.2631 193.901 90.0404 195.861 90.0677C198.449 90.0677 199.005 87.6118 197.611 85.5548C196.374 83.7077 193.545 81.4828 191.26 82.4798C188.975 83.4768 188.902 86.2055 190.621 87.8952Z" fill="#E4897B"/>
<path d="M203.857 78.5126C204.014 79.1213 204.465 79.5621 204.905 79.4572C205.345 79.3522 205.502 78.796 205.345 78.1873C205.188 77.5786 204.737 77.1378 204.297 77.2532C203.857 77.3687 203.7 77.9039 203.857 78.5126Z" fill="#263238"/>
<path d="M210.774 76.9909C210.931 77.5997 211.382 78.0404 211.822 77.9355C212.262 77.8305 212.419 77.2848 212.262 76.6761C212.105 76.0674 211.665 75.6266 211.214 75.7316C210.763 75.8365 210.648 76.3822 210.774 76.9909Z" fill="#263238"/>
<path d="M208.657 77.7781C209.848 79.4773 211.258 81.0122 212.849 82.3434C212.499 82.7329 212.068 83.0408 211.586 83.2457C211.105 83.4506 210.584 83.5474 210.061 83.5293L208.657 77.7781Z" fill="#DE5753"/>
<path d="M207.504 85.7438C207.938 85.7433 208.37 85.694 208.793 85.5969C208.84 85.5845 208.88 85.5547 208.905 85.5138C208.93 85.4728 208.939 85.4237 208.929 85.3765C208.917 85.3299 208.887 85.2899 208.846 85.2645C208.805 85.2391 208.756 85.2304 208.709 85.24C207.937 85.4122 207.137 85.4071 206.367 85.2254C205.598 85.0436 204.879 84.6899 204.266 84.1905C204.231 84.1566 204.184 84.1376 204.135 84.1376C204.086 84.1376 204.039 84.1566 204.004 84.1905C203.97 84.2258 203.951 84.2728 203.951 84.3217C203.951 84.3707 203.97 84.4177 204.004 84.4529C204.977 85.2919 206.22 85.7503 207.504 85.7438V85.7438Z" fill="#263238"/>
<path d="M201.111 76.76C201.183 76.7612 201.253 76.7409 201.313 76.7015C201.373 76.6622 201.419 76.6058 201.446 76.5396C201.619 76.1186 201.889 75.7452 202.236 75.4511C202.583 75.157 202.995 74.9508 203.438 74.8499C203.486 74.8435 203.533 74.8275 203.575 74.8028C203.617 74.7781 203.654 74.7453 203.683 74.7062C203.712 74.6671 203.733 74.6225 203.745 74.5751C203.757 74.5277 203.76 74.4784 203.752 74.4301C203.737 74.3335 203.684 74.2467 203.606 74.1879C203.528 74.1292 203.43 74.1032 203.333 74.1153C202.768 74.2305 202.24 74.4819 201.795 74.8477C201.349 75.2134 200.999 75.6825 200.776 76.2143C200.755 76.2582 200.744 76.3058 200.742 76.3543C200.74 76.4028 200.749 76.4511 200.766 76.4963C200.784 76.5415 200.811 76.5826 200.845 76.6171C200.879 76.6516 200.92 76.6788 200.964 76.697C201.008 76.7286 201.058 76.75 201.111 76.76Z" fill="#263238"/>
<path d="M213.111 73.9789C213.195 73.9782 213.276 73.9486 213.341 73.8949C213.417 73.8316 213.464 73.7412 213.474 73.6432C213.484 73.5452 213.455 73.4472 213.394 73.3702C213.025 72.9101 212.555 72.5412 212.02 72.2919C211.486 72.0426 210.902 71.9196 210.313 71.9324C210.264 71.9363 210.217 71.9498 210.174 71.972C210.131 71.9943 210.093 72.0248 210.062 72.0618C210.031 72.0989 210.007 72.1418 209.993 72.188C209.978 72.2342 209.973 72.2829 209.977 72.3312C209.98 72.38 209.992 72.4278 210.014 72.4716C210.036 72.5153 210.066 72.5542 210.104 72.5857C210.141 72.6171 210.184 72.6406 210.231 72.6546C210.278 72.6686 210.327 72.6728 210.376 72.667C210.847 72.662 211.313 72.7654 211.738 72.9692C212.163 73.173 212.536 73.4717 212.828 73.8424C212.861 73.8853 212.904 73.9199 212.953 73.9436C213.003 73.9672 213.056 73.9793 213.111 73.9789V73.9789Z" fill="#263238"/>
<path d="M177.479 111.929C176.661 113.199 175.98 114.322 175.288 115.539C174.597 116.756 173.937 117.932 173.287 119.149C172.008 121.574 170.803 124.05 169.703 126.58C167.394 131.758 165.662 137.174 164.536 142.731L164.431 143.267L164.379 143.529L164.305 143.97C164.216 144.557 164.171 145.15 164.169 145.743C164.18 146.738 164.285 147.729 164.484 148.703C164.838 150.31 165.351 151.878 166.014 153.384C167.19 156.022 168.593 158.554 170.206 160.951C173.254 165.507 176.721 169.769 180.56 173.681L185.119 170.018C182.583 165.589 180.057 160.993 177.94 156.49C176.899 154.337 176.01 152.114 175.278 149.836C174.979 148.887 174.775 147.909 174.67 146.919C174.634 146.595 174.634 146.267 174.67 145.943C174.67 145.848 174.67 145.764 174.733 145.754C174.796 145.743 174.733 145.754 174.733 145.701L174.796 145.492L174.922 145.061C175.584 142.746 176.371 140.469 177.28 138.24C178.202 135.962 179.229 133.695 180.308 131.439C181.388 129.182 182.551 126.957 183.746 124.733C184.333 123.62 184.951 122.518 185.569 121.427L187.414 118.278L177.479 111.929Z" fill="#E4897B"/>
<path d="M201.572 372.571C202.095 372.623 202.619 372.477 203.039 372.161C203.158 372.03 203.241 371.87 203.282 371.698C203.322 371.525 203.318 371.345 203.27 371.175C203.247 371.06 203.195 370.953 203.12 370.863C203.045 370.773 202.949 370.704 202.84 370.661C201.887 370.283 199.696 371.794 199.445 371.962C199.414 371.981 199.39 372.01 199.376 372.044C199.363 372.078 199.361 372.116 199.371 372.151C199.377 372.186 199.393 372.219 199.417 372.245C199.441 372.271 199.473 372.29 199.508 372.298C200.184 372.461 200.876 372.552 201.572 372.571V372.571ZM202.484 370.965C202.557 370.953 202.631 370.953 202.704 370.965C202.757 370.984 202.804 371.018 202.84 371.062C202.875 371.107 202.897 371.16 202.903 371.217C202.941 371.327 202.95 371.445 202.928 371.559C202.906 371.673 202.854 371.78 202.777 371.867C202.421 372.224 201.405 372.266 200.011 371.993C200.752 371.479 201.596 371.131 202.484 370.975V370.965Z" fill="white"/>
<path d="M199.55 372.308H199.644C200.42 371.847 201.572 370.209 201.394 369.37C201.363 369.216 201.281 369.077 201.161 368.976C201.041 368.875 200.891 368.818 200.734 368.814C200.596 368.796 200.455 368.809 200.323 368.853C200.19 368.896 200.069 368.969 199.969 369.066C199.183 369.832 199.361 372.067 199.361 372.161C199.365 372.193 199.376 372.223 199.395 372.248C199.413 372.274 199.437 372.295 199.466 372.308H199.55ZM200.598 369.16H200.681C200.943 369.16 201.006 369.317 201.027 369.422C201.143 369.979 200.378 371.206 199.707 371.773C199.61 370.922 199.786 370.062 200.21 369.317C200.263 369.266 200.325 369.226 200.393 369.199C200.462 369.172 200.535 369.159 200.608 369.16H200.598Z" fill="white"/>
<path d="M182.436 368.163C182.63 368.169 182.823 368.133 183.002 368.058C183.14 368.002 183.263 367.914 183.359 367.801C183.456 367.688 183.524 367.552 183.557 367.407C183.584 367.319 183.587 367.225 183.567 367.135C183.547 367.045 183.504 366.961 183.442 366.893C182.74 366.043 179.061 366.295 178.642 366.326C178.603 366.327 178.565 366.341 178.535 366.366C178.505 366.391 178.484 366.425 178.474 366.463C178.466 366.5 178.47 366.54 178.485 366.576C178.5 366.611 178.526 366.641 178.558 366.662C179.729 367.435 181.051 367.946 182.436 368.163V368.163ZM180.214 366.631C181.503 366.631 182.855 366.756 183.159 367.124C183.177 367.152 183.186 367.185 183.186 367.218C183.186 367.252 183.177 367.284 183.159 367.313C183.141 367.403 183.102 367.488 183.043 367.56C182.984 367.631 182.909 367.687 182.824 367.722C182.237 367.963 180.916 367.565 179.25 366.673L180.214 366.631Z" fill="white"/>
<path d="M178.653 366.694C179.701 366.694 182.059 365.885 182.237 365.046C182.237 364.836 182.237 364.542 181.734 364.301C179.931 363.451 178.537 366.305 178.474 366.4C178.462 366.43 178.455 366.462 178.455 366.494C178.455 366.527 178.462 366.559 178.474 366.589C178.492 366.621 178.517 366.648 178.549 366.666C178.58 366.685 178.616 366.694 178.653 366.694V366.694ZM181.074 364.521C181.251 364.519 181.427 364.559 181.587 364.637C181.807 364.742 181.912 364.857 181.891 364.962C181.786 365.455 180.088 366.148 178.978 366.295C179.313 365.728 180.12 364.521 181.074 364.521V364.521Z" fill="white"/>
<path d="M183.044 168.318L190.736 166.964L186.764 175.937C186.764 175.937 179.711 175.937 180.026 172.243L183.044 168.318Z" fill="#E4897B"/>
<path d="M196.552 171.477L192.916 178.719L186.806 175.937L190.778 166.964L196.552 171.477Z" fill="#E4897B"/>
<path d="M174.566 350.175L186.167 361.11L189.908 357.091L176.63 344.98L174.566 350.175Z" fill="#407BFF"/>
<path opacity="0.6" d="M174.566 350.175L186.167 361.11L189.908 357.091L176.63 344.98L174.566 350.175Z" fill="white"/>
<path d="M187.435 361.163H202.809L203.658 355.747L186.691 356.598L187.435 361.163Z" fill="#407BFF"/>
<path opacity="0.6" d="M187.435 361.163H202.809L203.658 355.747L186.691 356.598L187.435 361.163Z" fill="white"/>
<path d="M179.491 106.566C172.155 107.615 164.641 133.139 164.641 133.139L180.361 141.871C180.361 141.871 186.743 129.738 189.793 120.734C192.989 111.299 187.341 105.411 179.491 106.566Z" fill="#407BFF"/>
<path opacity="0.7" d="M179.491 106.566C172.155 107.615 164.641 133.139 164.641 133.139L180.361 141.871C180.361 141.871 186.743 129.738 189.793 120.734C192.989 111.299 187.341 105.411 179.491 106.566Z" fill="white"/>
<path opacity="0.2" d="M205.869 109.515L209.013 112.863L207.473 116.095L204.968 116.211L202.83 113.125L205.869 109.515Z" fill="black"/>
<path d="M207.2 115.518C207.2 115.518 213.163 140.254 213.394 145.397C213.719 152.471 210.763 164.55 210.763 164.55C210.763 164.55 206.571 154.507 205.712 145.177C204.853 135.847 205.492 120.755 205.104 115.518H207.2Z" fill="#407BFF"/>
<path opacity="0.2" d="M207.2 115.518C207.2 115.518 213.163 140.254 213.394 145.397C213.719 152.471 210.763 164.55 210.763 164.55C210.763 164.55 206.571 154.507 205.712 145.177C204.853 135.847 205.492 120.755 205.104 115.518H207.2Z" fill="black"/>
<path d="M205.869 109.515C204.675 111.451 203.983 113.655 203.857 115.927C203.857 115.927 190.778 111.309 191.396 104.54C191.396 104.54 193.251 103.438 194.425 102.546C194.425 102.546 194.865 106.807 205.869 109.515Z" fill="#407BFF"/>
<path opacity="0.6" d="M205.869 109.515C204.675 111.451 203.983 113.655 203.857 115.927C203.857 115.927 190.778 111.309 191.396 104.54C191.396 104.54 193.251 103.438 194.425 102.546C194.425 102.546 194.865 106.807 205.869 109.515Z" fill="white"/>
<path d="M205.869 109.515C207.071 111.348 207.937 113.381 208.426 115.518C208.426 115.518 214.348 111.509 212.566 104.824C211.481 104.386 210.363 104.035 209.223 103.774C209.223 103.774 209.998 108.098 205.869 109.515Z" fill="#407BFF"/>
<path opacity="0.6" d="M205.869 109.515C207.071 111.348 207.937 113.381 208.426 115.518C208.426 115.518 214.348 111.509 212.566 104.824C211.481 104.386 210.363 104.035 209.223 103.774C209.223 103.774 209.998 108.098 205.869 109.515Z" fill="white"/>
</svg>
